trial_4_IK.mot
nRows=13
nColumns=42

name trial_4_IK.mot
datacolumns 42
datarows 13
range 6.9000000000 7.0200000000
endheader
time	pelvis_tilt	pelvis_list	pelvis_rotation	pelvis_tx	pelvis_ty	pelvis_tz	hip_flexion_r	hip_adduction_r	hip_rotation_r	knee_angle_r	knee_vv_r	knee_rot_r	ankle_angle_r	subtalar_angle_r	mtp_angle_r	hip_flexion_l	hip_adduction_l	hip_rotation_l	knee_angle_l	knee_vv_l	knee_rot_l	ankle_angle_l	subtalar_angle_l	mtp_angle_l	lumbar_extension	lumbar_bending	lumbar_rotation	arm_flex_r	arm_add_r	arm_rot_r	elbow_flex_r	pro_sup_r	wrist_flex_r	wrist_dev_r	arm_flex_l	arm_add_l	arm_rot_l	elbow_flex_l	pro_sup_l	wrist_flex_l	wrist_dev_l
        6.9000000000	        8.9150422600	       -2.3783305800	        1.3233452600	        0.0676391600	        0.9163921200	        0.0015909000	       -0.7470080800	        6.1539203600	       -1.6215186100	      -11.2176119100	        0.0000000000	        0.0000000000	        5.4844535100	        0.0000000000	        0.0000000000	        9.6164091900	       -5.5520763400	       -2.0326822300	      -57.5007968700	        0.0000000000	        0.0000000000	        0.1853667300	        0.0000000000	        0.0000000000	      -23.9706952300	       -0.0147143900	        4.4344155600	       21.3127584400	      -19.4865534500	       31.5067499900	       21.0618334100	       86.5166270600	        0.0000000000	        0.0000000000	        0.5650525900	      -11.9491992600	       43.9452267100	        0.2935081600	       85.9436692700	        0.0000000000	        0.0000000000	
        6.9100000000	        8.6385105000	       -2.2345674800	        1.0509087400	        0.0662577100	        0.9168224400	        0.0025886300	       -1.1560535400	        6.0447892900	       -1.4374008500	      -10.8046632600	        0.0000000000	        0.0000000000	        5.6844576300	        0.0000000000	        0.0000000000	       10.8271811900	       -5.4037661200	       -2.4746002900	      -56.5118048700	        0.0000000000	        0.0000000000	        0.9250335300	        0.0000000000	        0.0000000000	      -23.7560873600	       -0.3572293500	        4.8963530200	       22.0397997800	      -19.9695914300	       30.6876798000	       22.0846293000	       86.5166270600	        0.0000000000	        0.0000000000	       -0.1859893100	      -11.9302717200	       43.5452999200	        0.3293743600	       85.9436692700	        0.0000000000	        0.0000000000	
        6.9200000000	        8.3530402400	       -2.0907404000	        0.7821037300	        0.0649032400	        0.9171661500	        0.0035087100	       -1.5549045800	        5.9202807700	       -1.3186704700	      -10.3898950000	        0.0000000000	        0.0000000000	        5.8694309300	        0.0000000000	        0.0000000000	       11.9472360800	       -5.2552045300	       -2.9658671400	      -55.2185786000	        0.0000000000	        0.0000000000	        1.5762874700	        0.0000000000	        0.0000000000	      -23.5152927000	       -0.6887873300	        5.3392477800	       22.7058981800	      -20.4428179800	       29.8604232100	       23.1180342200	       86.5166270600	        0.0000000000	        0.0000000000	       -0.9183301100	      -11.9199716300	       43.1134420400	        0.3926193600	       85.9436692700	        0.0000000000	        0.0000000000	
        6.9300000000	        8.0724060300	       -1.9501795100	        0.5238217700	        0.0635861600	        0.9174355800	        0.0043415800	       -1.9645761200	        5.7853621800	       -1.2712478400	       -9.9660067900	        0.0000000000	        0.0000000000	        6.0439022600	        0.0000000000	        0.0000000000	       12.9572140900	       -5.1160751400	       -3.5121053300	      -53.6324677200	        0.0000000000	        0.0000000000	        2.1235891800	        0.0000000000	        0.0000000000	      -23.2671593800	       -1.0020934900	        5.7656013500	       23.3065893700	      -20.9084777200	       29.0205278100	       24.1686145100	       86.5166270600	        0.0000000000	        0.0000000000	       -1.6228497100	      -11.9148481700	       42.6626590800	        0.4748838000	       85.9436692700	        0.0000000000	        0.0000000000	
        6.9400000000	        7.8108520100	       -1.8176110300	        0.2791479700	        0.0623321600	        0.9176397400	        0.0050726200	       -2.4041344600	        5.6458944300	       -1.2858787300	       -9.5286708700	        0.0000000000	        0.0000000000	        6.2136390600	        0.0000000000	        0.0000000000	       13.8403529200	       -4.9931151700	       -4.1224713200	      -51.7650828300	        0.0000000000	        0.0000000000	        2.5486566400	        0.0000000000	        0.0000000000	      -23.0310287000	       -1.2907162200	        6.1802952500	       23.8403654500	      -21.3681588800	       28.1655741200	       25.2396304800	       86.5166270600	        0.0000000000	        0.0000000000	       -2.2922084600	      -11.9128262700	       42.2021750300	        0.5704154000	       85.9436692700	        0.0000000000	        0.0000000000	
        6.9500000000	        7.5798453100	       -1.6974833600	        0.0454410200	        0.0611603900	        0.9177757400	        0.0056905100	       -2.8862812800	        5.5078556900	       -1.3410892400	       -9.0801071900	        0.0000000000	        0.0000000000	        6.3858693000	        0.0000000000	        0.0000000000	       14.5855456700	       -4.8873973700	       -4.8029948700	      -49.6318720100	        0.0000000000	        0.0000000000	        2.8361470700	        0.0000000000	        0.0000000000	      -22.8239589200	       -1.5506917000	        6.5893232400	       24.3096590400	      -21.8221673300	       27.2976249900	       26.3294704700	       86.5166270600	        0.0000000000	        0.0000000000	       -2.9211254200	      -11.9113521900	       41.7378636400	        0.6762106000	       85.9436692700	        0.0000000000	        0.0000000000	
        6.9600000000	        7.3857746800	       -1.5922200700	       -0.1864013600	        0.0600516300	        0.9178306300	        0.0062144400	       -3.4147050000	        5.3756887700	       -1.4086504800	       -8.6294588500	        0.0000000000	        0.0000000000	        6.5692301100	        0.0000000000	        0.0000000000	       15.1884144100	       -4.7938568300	       -5.5487325700	      -47.2550594600	        0.0000000000	        0.0000000000	        2.9767325400	        0.0000000000	        0.0000000000	      -22.6577728800	       -1.7821256200	        6.9981852100	       24.7210052700	      -22.2690312900	       26.4247067000	       27.4307846400	       86.5166270600	        0.0000000000	        0.0000000000	       -3.5054526300	      -11.9053448700	       41.2728711700	        0.7919923800	       85.9436692700	        0.0000000000	        0.0000000000	
        6.9700000000	        7.2304504600	       -1.5019382600	       -0.4289016700	        0.0589826000	        0.9177997900	        0.0066906200	       -3.9836754800	        5.2510045700	       -1.4601111300	       -8.1905599700	        0.0000000000	        0.0000000000	        6.7732335600	        0.0000000000	        0.0000000000	       15.6517838400	       -4.7014487400	       -6.3388660500	      -44.6620249400	        0.0000000000	        0.0000000000	        2.9677924400	        0.0000000000	        0.0000000000	      -22.5372135200	       -1.9883976200	        7.4101704200	       25.0842715800	      -22.7057032000	       25.5607296700	       28.5305450200	       86.5166270600	        0.0000000000	        0.0000000000	       -4.0418452800	      -11.8877732000	       40.8081563600	        0.9187979700	       85.9436692700	        0.0000000000	        0.0000000000	
        6.9800000000	        7.1117211000	       -1.4245647700	       -0.6909922700	        0.0579705100	        0.9176881900	        0.0071336600	       -4.5807023500	        5.1324174100	       -1.4725655100	       -7.7790107300	        0.0000000000	        0.0000000000	        7.0072663800	        0.0000000000	        0.0000000000	       15.9844510900	       -4.5945285500	       -7.1366684600	      -41.8794624800	        0.0000000000	        0.0000000000	        2.8128832200	        0.0000000000	        0.0000000000	      -22.4602266900	       -2.1730313600	        7.8252766400	       25.4109327000	      -23.1286751500	       24.7239473100	       29.6110057600	       86.5166270600	        0.0000000000	        0.0000000000	       -4.5293979500	      -11.8526330500	       40.3430146600	        1.0563759100	       85.9436692700	        0.0000000000	        0.0000000000	
        6.9900000000	        7.0232104700	       -1.3565918700	       -0.9715923500	        0.0570241600	        0.9174929900	        0.0075062100	       -5.1911045000	        5.0160597900	       -1.4321114400	       -7.4097047000	        0.0000000000	        0.0000000000	        7.2793646200	        0.0000000000	        0.0000000000	       16.1973337800	       -4.4563412500	       -7.8931025600	      -38.9279083200	        0.0000000000	        0.0000000000	        2.5210608800	        0.0000000000	        0.0000000000	      -22.4198807600	       -2.3368531900	        8.2395658500	       25.7119040500	      -23.5351823700	       23.9345808600	       30.6514662100	       86.5166270600	        0.0000000000	        0.0000000000	       -4.9709540800	      -11.7970197400	       39.8760395000	        1.2016274700	       85.9436692700	        0.0000000000	        0.0000000000	
        7.0000000000	        6.9567408400	       -1.2954300000	       -1.2596126900	        0.0561164800	        0.9172025600	        0.0077617700	       -5.8017999300	        4.8975640900	       -1.3345289200	       -7.0948440000	        0.0000000000	        0.0000000000	        7.5951080700	        0.0000000000	        0.0000000000	       16.2998955700	       -4.2727277800	       -8.5519088900	      -35.8209244100	        0.0000000000	        0.0000000000	        2.1064729200	        0.0000000000	        0.0000000000	      -22.4070315600	       -2.4774412600	        8.6443958200	       25.9961432700	      -23.9233881100	       23.2123053900	       31.6307565600	       86.5166270600	        0.0000000000	        0.0000000000	       -5.3709872900	      -11.7204204500	       39.4067222500	        1.3494506900	       85.9436692700	        0.0000000000	        0.0000000000	
        7.0100000000	        6.9065148700	       -1.2416052000	       -1.5401030600	        0.0552533100	        0.9168101200	        0.0078683000	       -6.4033349900	        4.7752774000	       -1.1836703200	       -6.8426316400	        0.0000000000	        0.0000000000	        7.9568967700	        0.0000000000	        0.0000000000	       16.2983923300	       -4.0349368300	       -9.0548263500	      -32.5697139100	        0.0000000000	        0.0000000000	        1.5878792100	        0.0000000000	        0.0000000000	      -22.4135379700	       -2.5903027600	        9.0265612400	       26.2708388500	      -24.2914546500	       22.5741023400	       32.5300381500	       86.5166270600	        0.0000000000	        0.0000000000	       -5.7317407900	      -11.6226598800	       38.9372391800	        1.4945796600	       85.9436692700	        0.0000000000	        0.0000000000	
        7.0200000000	        6.8707936600	       -1.1979997500	       -1.8012139000	        0.0544669100	        0.9163185000	        0.0078090100	       -6.9908217700	        4.6518326800	       -0.9885562900	       -6.6567712100	        0.0000000000	        0.0000000000	        8.3637734000	        0.0000000000	        0.0000000000	       16.1949200500	       -3.7428935200	       -9.3467439400	      -29.1902398500	        0.0000000000	        0.0000000000	        0.9874643600	        0.0000000000	        0.0000000000	      -22.4353584400	       -2.6700853100	        9.3711263500	       26.5425862700	      -24.6362047600	       22.0328645400	       33.3350705700	       86.5166270600	        0.0000000000	        0.0000000000	       -6.0521372100	      -11.5026726800	       38.4737500300	        1.6324317300	       85.9436692700	        0.0000000000	        0.0000000000	
